<svg xmlns="http://www.w3.org/2000/svg" version="1.1" xmlns:xlink="http://www.w3.org/1999/xlink" width="1000" height="1000"><metadata><rdf:RDF xmlns:rdf="http://www.w3.org/1999/02/22-rdf-syntax-ns#" xmlns:dc="http://purl.org/dc/elements/1.1/"><rdf:Description><dc:creator>RealFaviconGenerator</dc:creator><dc:source>https://realfavicongenerator.net</dc:source></rdf:Description></rdf:RDF></metadata><g clip-path="url(#SvgjsClipPath1025)"><rect width="1000" height="1000" fill="#07070f"></rect><g transform="matrix(1.3671875,0,0,1.3671875,150,150)"><svg xmlns="http://www.w3.org/2000/svg" viewBox="0 0 512 512" width="512" height="512"><defs>
    <linearGradient id="bg" x1="0%" y1="0%" x2="100%" y2="100%">
      <stop offset="0%" style="stop-color:#1a0a2e"></stop>
      <stop offset="100%" style="stop-color:#07070f"></stop>
    </linearGradient>
    <linearGradient id="accent" x1="0%" y1="0%" x2="100%" y2="100%">
      <stop offset="0%" style="stop-color:#ff6b7a"></stop>
      <stop offset="100%" style="stop-color:#ff3f5b"></stop>
    </linearGradient>
    <filter id="glow">
      <feGaussianBlur stdDeviation="8" result="blur"></feGaussianBlur>
      <feMerge><feMergeNode in="blur"></feMergeNode><feMergeNode in="SourceGraphic"></feMergeNode></feMerge>
    </filter>
  <clipPath id="SvgjsClipPath1025"><rect width="1000" height="1000" x="0" y="0" rx="350" ry="350"></rect></clipPath></defs><rect width="512" height="512" rx="110" fill="url(#bg)"></rect><rect x="48" y="156" width="52" height="200" rx="8" fill="#1a1a2e"></rect><rect x="54" y="172" width="40" height="28" rx="4" fill="#ff3f5b" opacity="0.8"></rect><rect x="54" y="214" width="40" height="28" rx="4" fill="#ff3f5b" opacity="0.5"></rect><rect x="54" y="256" width="40" height="28" rx="4" fill="#ff3f5b" opacity="0.8"></rect><rect x="54" y="298" width="40" height="28" rx="4" fill="#ff3f5b" opacity="0.5"></rect><rect x="412" y="156" width="52" height="200" rx="8" fill="#1a1a2e"></rect><rect x="418" y="172" width="40" height="28" rx="4" fill="#ff3f5b" opacity="0.5"></rect><rect x="418" y="214" width="40" height="28" rx="4" fill="#ff3f5b" opacity="0.8"></rect><rect x="418" y="256" width="40" height="28" rx="4" fill="#ff3f5b" opacity="0.5"></rect><rect x="418" y="298" width="40" height="28" rx="4" fill="#ff3f5b" opacity="0.8"></rect><rect x="116" y="140" width="280" height="232" rx="16" fill="#0e0e20"></rect><rect x="116" y="140" width="280" height="56" rx="16" fill="url(#accent)"></rect><rect x="116" y="168" width="280" height="28" rx="0" fill="url(#accent)"></rect><line x1="160" y1="140" x2="140" y2="196" stroke="#07070f" stroke-width="12"></line><line x1="200" y1="140" x2="180" y2="196" stroke="#07070f" stroke-width="12"></line><line x1="240" y1="140" x2="220" y2="196" stroke="#07070f" stroke-width="12"></line><line x1="280" y1="140" x2="260" y2="196" stroke="#07070f" stroke-width="12"></line><line x1="320" y1="140" x2="300" y2="196" stroke="#07070f" stroke-width="12"></line><line x1="360" y1="140" x2="340" y2="196" stroke="#07070f" stroke-width="12"></line><circle cx="208" cy="268" r="28" fill="#ff3f5b" opacity="0.9" filter="url(#glow)"></circle><circle cx="208" cy="258" r="12" fill="#07070f"></circle><path d="M184 295 Q208 282 232 295" fill="#07070f"></path><circle cx="304" cy="268" r="28" fill="#ff3f5b" opacity="0.9" filter="url(#glow)"></circle><circle cx="304" cy="258" r="12" fill="#07070f"></circle><path d="M280 295 Q304 282 328 295" fill="#07070f"></path><text x="256" y="280" font-size="32" text-anchor="middle" fill="#ff3f5b" filter="url(#glow)">♥</text><rect x="130" y="336" width="252" height="16" rx="8" fill="#1a1a2e"></rect><rect x="170" y="360" width="172" height="10" rx="5" fill="#ff3f5b" opacity="0.4"></rect><circle cx="390" cy="148" r="5" fill="#fff" opacity="0.6"></circle><circle cx="122" cy="360" r="3" fill="#ff3f5b" opacity="0.5"></circle></svg></g></g></svg>